<?xml version="1.0" encoding="utf-8"?>
<!-- Generator: Adobe Illustrator 24.0.1, SVG Export Plug-In . SVG Version: 6.00 Build 0)  -->
<svg version="1.0" id="Ebene_1" xmlns="http://www.w3.org/2000/svg" xmlns:xlink="http://www.w3.org/1999/xlink" x="0px" y="0px"
	 viewBox="0 0 124.5 189" style="enable-background:new 0 0 124.5 189;" xml:space="preserve">
<style type="text/css">
	.st0{fill:#FFFFFF;stroke:#CF2E42;stroke-width:4;stroke-miterlimit:10;}
	.st1{fill:#FFFFFF;stroke:#D8BE22;stroke-width:4;stroke-miterlimit:10;}
	.st2{fill:#FFFFFF;stroke:#A55E2B;stroke-width:4;stroke-miterlimit:10;}
	.st3{fill:#CF2E42;stroke:#CF2E42;stroke-width:4;stroke-miterlimit:10;}
	.st4{fill:#D8BE22;stroke:#D8BE22;stroke-width:4;stroke-miterlimit:10;}
	.st5{fill:#A55E2B;stroke:#A55E2B;stroke-width:4;stroke-miterlimit:10;}
	.st6{fill:url(#);}
	.st7{fill:#FFFFFF;stroke:#1D441F;stroke-width:4;stroke-miterlimit:10;}
</style>
<path class="st5" d="M35.58,114.14c-7.82-4.26-21.83,13.96-28.88,9.63c-3.57-2.2-4.49-9.64-1.7-14.15
	c5.37-8.68,22.94-4.04,24.35-9.06c1.17-4.18-11.02-7.35-15.85-19.82c-2.94-7.57-2.27-16.25,0-16.99c1.44-0.47,2.72,2.52,8.49,8.49
	c5.13,5.31,9.18,8.19,13.59,11.32c5.6,3.99,8.44,5.96,10.19,5.1c2.65-1.31,2.27-7.33,1.7-15.29c-0.87-12.13-3.18-15.84-0.57-19.25
	c2.76-3.61,9.31-4.62,11.89-2.26c2.33,2.13,0.24,5.93,0,15.29c-0.17,6.7-0.38,14.99,2.83,16.42c3.9,1.74,8.62-8.54,22.65-15.29
	c5.52-2.65,14.76-7.1,20.38-2.83c4.82,3.66,5.93,12.94,2.26,16.99c-3.51,3.87-8.93,0.23-20.38,3.4c-4,1.11-12.59,3.49-13.59,8.49
	c-0.96,4.82,5.57,9.84,9.06,12.46c16.72,12.55,34.43,10.53,34.54,13.59c0.09,2.68-13.39,7.6-26.61,5.1
	c-8-1.52-16.24-5.81-18.12-6.79c-8.22-4.29-11.96-8.03-13.59-6.79c-2.83,2.14,7.29,14.34,2.83,21.52
	c-2.96,4.76-11.94,6.65-16.99,3.4C36.39,131.83,41.97,117.62,35.58,114.14z"/>
</svg>
