<?xml version="1.0" encoding="utf-8"?>
<!-- Generator: Adobe Illustrator 24.0.1, SVG Export Plug-In . SVG Version: 6.00 Build 0)  -->
<svg version="1.0" id="Ebene_1" xmlns="http://www.w3.org/2000/svg" xmlns:xlink="http://www.w3.org/1999/xlink" x="0px" y="0px"
	 viewBox="0 0 121.5 189" style="enable-background:new 0 0 121.5 189;" xml:space="preserve">
<style type="text/css">
	.st0{fill:none;}
	.st1{fill:#A55F2B;stroke:#A55F2B;stroke-miterlimit:10;}
	.st2{fill:#FFFFFF;stroke:#CF2E42;stroke-width:4;stroke-miterlimit:10;}
	.st3{fill:#FFFFFF;stroke:#D8BE22;stroke-width:4;stroke-miterlimit:10;}
	.st4{fill:#FFFFFF;stroke:#A55E2B;stroke-width:4;stroke-miterlimit:10;}
	.st5{fill:#CF2E42;stroke:#CF2E42;stroke-width:4;stroke-miterlimit:10;}
	.st6{fill:#D8BE22;stroke:#D8BE22;stroke-width:4;stroke-miterlimit:10;}
	.st7{fill:#A55E2B;stroke:#A55E2B;stroke-width:4;stroke-miterlimit:10;}
	.st8{fill:url(#);}
	.st9{fill:url(#SVGID_1_);}
	.st10{fill:url(#SVGID_2_);}
	.st11{fill:url(#SVGID_3_);}
	.st12{fill:#FFFFFF;stroke:#1D441F;stroke-width:4;stroke-miterlimit:10;}
	.st13{fill:url(#SVGID_4_);}
</style>
<pattern  x="-270.5" y="-452" width="28.8" height="28.8" patternUnits="userSpaceOnUse" id="blue" viewBox="4.1 -32.9 28.8 28.8" style="overflow:visible;">
	<g>
		<rect x="4.1" y="-32.9" class="st0" width="28.8" height="28.8"/>
		<g>
			<path class="st1" d="M32.9-0.5c1.99,0,3.6-1.61,3.6-3.6c0-1.99-1.61-3.6-3.6-3.6s-3.6,1.61-3.6,3.6C29.3-2.11,30.91-0.5,32.9-0.5
				z"/>
			<path class="st1" d="M18.5-0.5c1.99,0,3.6-1.61,3.6-3.6c0-1.99-1.61-3.6-3.6-3.6c-1.99,0-3.6,1.61-3.6,3.6
				C14.9-2.11,16.51-0.5,18.5-0.5z"/>
			<circle class="st1" cx="32.9" cy="-18.5" r="3.6"/>
			<path class="st1" d="M18.5-14.9c1.99,0,3.6-1.61,3.6-3.6c0-1.99-1.61-3.6-3.6-3.6c-1.99,0-3.6,1.61-3.6,3.6
				C14.9-16.51,16.51-14.9,18.5-14.9z"/>
			<path class="st1" d="M11.3-7.7c1.99,0,3.6-1.61,3.6-3.6c0-1.99-1.61-3.6-3.6-3.6c-1.99,0-3.6,1.61-3.6,3.6
				C7.7-9.31,9.31-7.7,11.3-7.7z"/>
			<path class="st1" d="M25.7-7.7c1.99,0,3.6-1.61,3.6-3.6c0-1.99-1.61-3.6-3.6-3.6s-3.6,1.61-3.6,3.6C22.1-9.31,23.71-7.7,25.7-7.7
				z"/>
			<path class="st1" d="M11.3-22.1c1.99,0,3.6-1.61,3.6-3.6c0-1.99-1.61-3.6-3.6-3.6c-1.99,0-3.6,1.61-3.6,3.6
				C7.7-23.71,9.31-22.1,11.3-22.1z"/>
			<path class="st1" d="M25.7-22.1c1.99,0,3.6-1.61,3.6-3.6c0-1.99-1.61-3.6-3.6-3.6s-3.6,1.61-3.6,3.6
				C22.1-23.71,23.71-22.1,25.7-22.1z"/>
		</g>
		<g>
			<path class="st1" d="M4.1-0.5c1.99,0,3.6-1.61,3.6-3.6c0-1.99-1.61-3.6-3.6-3.6S0.5-6.09,0.5-4.1C0.5-2.11,2.11-0.5,4.1-0.5z"/>
			<circle class="st1" cx="4.1" cy="-18.5" r="3.6"/>
		</g>
		<g>
			<path class="st1" d="M32.9-29.3c1.99,0,3.6-1.61,3.6-3.6c0-1.99-1.61-3.6-3.6-3.6s-3.6,1.61-3.6,3.6
				C29.3-30.91,30.91-29.3,32.9-29.3z"/>
			<path class="st1" d="M18.5-29.3c1.99,0,3.6-1.61,3.6-3.6c0-1.99-1.61-3.6-3.6-3.6c-1.99,0-3.6,1.61-3.6,3.6
				C14.9-30.91,16.51-29.3,18.5-29.3z"/>
		</g>
		<g>
			<path class="st1" d="M4.1-29.3c1.99,0,3.6-1.61,3.6-3.6c0-1.99-1.61-3.6-3.6-3.6s-3.6,1.61-3.6,3.6C0.5-30.91,2.11-29.3,4.1-29.3
				z"/>
		</g>
	</g>
</pattern>
<pattern  id="SVGID_1_" xlink:href="#blue" patternTransform="matrix(1 0 0 1 -94.2042 0)">
</pattern>
<rect x="26.7" y="78.77" class="st9" width="68.6" height="68.6"/>
<pattern  id="SVGID_2_" xlink:href="#blue" patternTransform="matrix(1 0 0 1 -94.2042 0)">
</pattern>
<polygon class="st10" points="26.7,72.87 61,33.95 95.3,72.87 "/>
</svg>
