<?xml version="1.0" encoding="utf-8"?>
<!-- Generator: Adobe Illustrator 24.0.1, SVG Export Plug-In . SVG Version: 6.00 Build 0)  -->
<svg version="1.0" id="Ebene_1" xmlns="http://www.w3.org/2000/svg" xmlns:xlink="http://www.w3.org/1999/xlink" x="0px" y="0px"
	 viewBox="0 0 516.63 303" style="enable-background:new 0 0 516.63 303;" xml:space="preserve">
<style type="text/css">
	.st0{fill:#FFFFFF;stroke:#CF2E42;stroke-width:4;stroke-miterlimit:10;}
	.st1{fill:#FFFFFF;stroke:#D8BE22;stroke-width:4;stroke-miterlimit:10;}
	.st2{fill:#FFFFFF;stroke:#A55E2B;stroke-width:4;stroke-miterlimit:10;}
	.st3{fill:#CF2E42;stroke:#CF2E42;stroke-width:4;stroke-miterlimit:10;}
	.st4{fill:#D8BE22;stroke:#D8BE22;stroke-width:4;stroke-miterlimit:10;}
	.st5{fill:#A55E2B;stroke:#A55E2B;stroke-width:4;stroke-miterlimit:10;}
	.st6{fill:url(#);}
	.st7{fill:#FFFFFF;stroke:#1D441F;stroke-width:4;stroke-miterlimit:10;}
</style>
<path class="st3" d="M275.84,199.09c-10.44-14.92-32.49-12.14-33.5-22.64c-0.54-5.62,5.7-7.35,18.11-21.73
	c15.02-17.41,14.09-24.39,22.64-27.16c12.41-4.03,26.17,6.87,33.5,12.68c10.16,8.04,23.95,23.52,19.92,30.78
	c-4.07,7.32-22.03-1.31-32.59,9.05c-3.44,3.37-5.42,8.09-6.34,21.73c-2.54,37.78,8.98,56.03,0,64.28
	c-4.86,4.46-14.72,5.11-19.92,0.91C264.29,256.2,291.13,220.95,275.84,199.09z"/>
<path class="st4" d="M350.33,141.71c-10.44-14.92-32.49-12.14-33.5-22.64c-0.54-5.62,5.7-7.35,18.11-21.73
	c15.02-17.41,14.09-24.39,22.64-27.16c12.41-4.03,26.17,6.87,33.5,12.68c10.16,8.04,23.95,23.52,19.92,30.78
	c-4.07,7.32-22.03-1.31-32.59,9.05c-3.44,3.37-5.42,8.09-6.34,21.73c-2.54,37.78,8.98,56.03,0,64.28
	c-4.86,4.46-14.72,5.11-19.92,0.91C338.78,198.82,365.63,163.57,350.33,141.71z"/>
<path class="st5" d="M433.14,179.63c-10.44-14.92-32.49-12.14-33.5-22.64c-0.54-5.62,5.7-7.35,18.11-21.73
	c15.02-17.41,14.09-24.39,22.64-27.16c12.41-4.03,26.17,6.87,33.5,12.68c10.16,8.04,23.95,23.52,19.92,30.78
	c-4.07,7.32-22.03-1.31-32.59,9.05c-3.44,3.37-5.42,8.09-6.34,21.73c-2.54,37.78,8.98,56.03,0,64.28
	c-4.86,4.46-14.72,5.11-19.92,0.91C421.59,236.74,448.44,201.49,433.14,179.63z"/>
<circle class="st3" cx="66.83" cy="80.92" r="44.23"/>
<rect x="99.77" y="207.95" class="st4" width="68.6" height="68.6"/>
<polygon class="st4" points="99.77,198.25 134.06,159.33 168.36,198.25 "/>
<rect x="148.26" y="99.44" transform="matrix(0.6934 0.7206 -0.7206 0.6934 152.3465 -90.5414)" class="st5" width="68.6" height="68.6"/>
<polygon class="st5" points="190.48,78.52 242.31,76.25 238.04,127.95 "/>
</svg>
