<?xml version="1.0" encoding="utf-8"?>
<!-- Generator: Adobe Illustrator 24.0.1, SVG Export Plug-In . SVG Version: 6.00 Build 0)  -->
<svg version="1.0" id="Ebene_1" xmlns="http://www.w3.org/2000/svg" xmlns:xlink="http://www.w3.org/1999/xlink" x="0px" y="0px"
	 viewBox="0 0 124.5 189" style="enable-background:new 0 0 124.5 189;" xml:space="preserve">
<style type="text/css">
	.st0{fill:none;}
	.st1{fill:#D8BE22;stroke:#D8BE22;stroke-miterlimit:10;}
	.st2{fill:#FFFFFF;stroke:#CF2E42;stroke-width:4;stroke-miterlimit:10;}
	.st3{fill:#FFFFFF;stroke:#D8BE22;stroke-width:4;stroke-miterlimit:10;}
	.st4{fill:#FFFFFF;stroke:#A55E2B;stroke-width:4;stroke-miterlimit:10;}
	.st5{fill:#CF2E42;stroke:#CF2E42;stroke-width:4;stroke-miterlimit:10;}
	.st6{fill:#D8BE22;stroke:#D8BE22;stroke-width:4;stroke-miterlimit:10;}
	.st7{fill:#A55E2B;stroke:#A55E2B;stroke-width:4;stroke-miterlimit:10;}
	.st8{fill:url(#);}
	.st9{fill:url(#SVGID_1_);}
	.st10{fill:url(#SVGID_2_);}
	.st11{fill:url(#SVGID_3_);}
	.st12{fill:#FFFFFF;stroke:#1D441F;stroke-width:4;stroke-miterlimit:10;}
	.st13{fill:url(#SVGID_4_);}
</style>
<pattern  x="-580.5" y="-457" width="28.8" height="28.8" patternUnits="userSpaceOnUse" id="red" viewBox="4.1 -32.9 28.8 28.8" style="overflow:visible;">
	<g>
		<rect x="4.1" y="-32.9" class="st0" width="28.8" height="28.8"/>
		<g>
			<path class="st1" d="M32.9-0.5c1.99,0,3.6-1.61,3.6-3.6c0-1.99-1.61-3.6-3.6-3.6s-3.6,1.61-3.6,3.6C29.3-2.11,30.91-0.5,32.9-0.5
				z"/>
			<path class="st1" d="M18.5-0.5c1.99,0,3.6-1.61,3.6-3.6c0-1.99-1.61-3.6-3.6-3.6c-1.99,0-3.6,1.61-3.6,3.6
				C14.9-2.11,16.51-0.5,18.5-0.5z"/>
			<circle class="st1" cx="32.9" cy="-18.5" r="3.6"/>
			<path class="st1" d="M18.5-14.9c1.99,0,3.6-1.61,3.6-3.6c0-1.99-1.61-3.6-3.6-3.6c-1.99,0-3.6,1.61-3.6,3.6
				C14.9-16.51,16.51-14.9,18.5-14.9z"/>
			<path class="st1" d="M11.3-7.7c1.99,0,3.6-1.61,3.6-3.6c0-1.99-1.61-3.6-3.6-3.6c-1.99,0-3.6,1.61-3.6,3.6
				C7.7-9.31,9.31-7.7,11.3-7.7z"/>
			<path class="st1" d="M25.7-7.7c1.99,0,3.6-1.61,3.6-3.6c0-1.99-1.61-3.6-3.6-3.6s-3.6,1.61-3.6,3.6C22.1-9.31,23.71-7.7,25.7-7.7
				z"/>
			<path class="st1" d="M11.3-22.1c1.99,0,3.6-1.61,3.6-3.6c0-1.99-1.61-3.6-3.6-3.6c-1.99,0-3.6,1.61-3.6,3.6
				C7.7-23.71,9.31-22.1,11.3-22.1z"/>
			<path class="st1" d="M25.7-22.1c1.99,0,3.6-1.61,3.6-3.6c0-1.99-1.61-3.6-3.6-3.6s-3.6,1.61-3.6,3.6
				C22.1-23.71,23.71-22.1,25.7-22.1z"/>
		</g>
		<g>
			<path class="st1" d="M4.1-0.5c1.99,0,3.6-1.61,3.6-3.6c0-1.99-1.61-3.6-3.6-3.6S0.5-6.09,0.5-4.1C0.5-2.11,2.11-0.5,4.1-0.5z"/>
			<circle class="st1" cx="4.1" cy="-18.5" r="3.6"/>
		</g>
		<g>
			<path class="st1" d="M32.9-29.3c1.99,0,3.6-1.61,3.6-3.6c0-1.99-1.61-3.6-3.6-3.6s-3.6,1.61-3.6,3.6
				C29.3-30.91,30.91-29.3,32.9-29.3z"/>
			<path class="st1" d="M18.5-29.3c1.99,0,3.6-1.61,3.6-3.6c0-1.99-1.61-3.6-3.6-3.6c-1.99,0-3.6,1.61-3.6,3.6
				C14.9-30.91,16.51-29.3,18.5-29.3z"/>
		</g>
		<g>
			<path class="st1" d="M4.1-29.3c1.99,0,3.6-1.61,3.6-3.6c0-1.99-1.61-3.6-3.6-3.6s-3.6,1.61-3.6,3.6C0.5-30.91,2.11-29.3,4.1-29.3
				z"/>
		</g>
	</g>
</pattern>
<pattern  id="SVGID_1_" xlink:href="#red" patternTransform="matrix(1 0 0 1 172.7958 0)">
</pattern>
<path class="st9" d="M35.58,110.3c-7.82-4.26-21.83,13.96-28.88,9.63c-3.57-2.2-4.49-9.64-1.7-14.15
	c5.37-8.68,22.94-4.04,24.35-9.06c1.17-4.18-11.02-7.35-15.85-19.82c-2.94-7.57-2.27-16.25,0-16.99c1.44-0.47,2.72,2.52,8.49,8.49
	c5.13,5.31,9.18,8.19,13.59,11.32c5.6,3.99,8.44,5.96,10.19,5.1c2.65-1.31,2.27-7.33,1.7-15.29c-0.87-12.13-3.18-15.84-0.57-19.25
	c2.76-3.61,9.31-4.62,11.89-2.26c2.33,2.13,0.24,5.93,0,15.29c-0.17,6.7-0.38,14.99,2.83,16.42c3.9,1.74,8.62-8.54,22.65-15.29
	c5.52-2.65,14.76-7.1,20.38-2.83c4.82,3.66,5.93,12.94,2.26,16.99c-3.51,3.87-8.93,0.23-20.38,3.4c-4,1.11-12.59,3.49-13.59,8.49
	c-0.96,4.82,5.57,9.84,9.06,12.46c16.72,12.55,34.43,10.53,34.54,13.59c0.09,2.68-13.39,7.6-26.61,5.1
	c-8-1.52-16.24-5.81-18.12-6.79c-8.22-4.29-11.96-8.03-13.59-6.79c-2.83,2.14,7.29,14.34,2.83,21.52
	c-2.96,4.76-11.94,6.65-16.99,3.4C36.39,127.99,41.97,113.78,35.58,110.3z"/>
</svg>
