<?xml version="1.0" encoding="utf-8"?>
<!-- Generator: Adobe Illustrator 24.0.1, SVG Export Plug-In . SVG Version: 6.00 Build 0)  -->
<svg version="1.0" id="Ebene_1" xmlns="http://www.w3.org/2000/svg" xmlns:xlink="http://www.w3.org/1999/xlink" x="0px" y="0px"
	 viewBox="0 0 126.38 189" style="enable-background:new 0 0 126.38 189;" xml:space="preserve">
<style type="text/css">
	.st0{fill:#FFFFFF;stroke:#CF2E42;stroke-width:4;stroke-miterlimit:10;}
	.st1{fill:#FFFFFF;stroke:#D8BE22;stroke-width:4;stroke-miterlimit:10;}
	.st2{fill:#FFFFFF;stroke:#A55E2B;stroke-width:4;stroke-miterlimit:10;}
	.st3{fill:#CF2E42;stroke:#CF2E42;stroke-width:4;stroke-miterlimit:10;}
	.st4{fill:#D8BE22;stroke:#D8BE22;stroke-width:4;stroke-miterlimit:10;}
	.st5{fill:#A55E2B;stroke:#A55E2B;stroke-width:4;stroke-miterlimit:10;}
	.st6{fill:url(#);}
	.st7{fill:#FFFFFF;stroke:#1D441F;stroke-width:4;stroke-miterlimit:10;}
</style>
<path class="st5" d="M47.71,100.01c-10.44-14.92-32.49-12.14-33.5-22.64c-0.54-5.62,5.7-7.35,18.11-21.73
	C47.34,38.24,46.4,31.25,54.95,28.48c12.41-4.03,26.17,6.87,33.5,12.68c10.16,8.04,23.95,23.52,19.92,30.78
	c-4.07,7.32-22.03-1.31-32.59,9.05c-3.44,3.37-5.42,8.09-6.34,21.73c-2.54,37.78,8.98,56.03,0,64.28
	c-4.86,4.46-14.72,5.11-19.92,0.91C36.15,157.11,63,121.86,47.71,100.01z"/>
</svg>
